<svg xmlns="http://www.w3.org/2000/svg" data-name="Layer 1" viewBox="0 0 100 100" x="0px" y="0px"><path d="M25.86,28.54l17.08-13A17,17,0,0,1,59.28,13.2L86.51,23.59a15.58,15.58,0,0,0,5.55,1h4.48A2.36,2.36,0,0,1,98.91,27v33.3a2.36,2.36,0,0,1-2.36,2.36H90.63a3.71,3.71,0,0,0-2.33.83l-1.35,1.1a.81.81,0,0,1-1.13-.12L54.09,25.91a2.6,2.6,0,0,0-3.28-.62L36.27,33.44a10.72,10.72,0,0,1-9.51.47A3.24,3.24,0,0,1,25.86,28.54ZM3.46,62.64H8.58l3.57-4.37A9.14,9.14,0,0,1,28,61.62a9.12,9.12,0,0,1,6.35,6.3,9.12,9.12,0,0,1,5.33,4.16,9.2,9.2,0,0,1,5.11,2.61A9.49,9.49,0,0,1,46.1,86.05l-.48.85a.06.06,0,0,0,0,.08,5.22,5.22,0,0,0,8.11-5.28.11.11,0,0,1,.19-.11l.39.38a5.39,5.39,0,0,0,6.79.68,5.23,5.23,0,0,0,2.14-5.29.11.11,0,0,1,.19-.11l.39.38a5.39,5.39,0,0,0,6.78.68A5.23,5.23,0,0,0,72.78,73a.11.11,0,0,1,.19-.11l.44.42a5.34,5.34,0,0,0,6.44.83,5.24,5.24,0,0,0,1.21-8l-3.2-3.86L52,30.81a.85.85,0,0,0-1.08-.2L38.56,37.53a15.5,15.5,0,0,1-13,1,8.31,8.31,0,0,1-5.06-5,9.36,9.36,0,0,1,.86-7.15,1.18,1.18,0,0,0-1.05-1.74H3.46A2.36,2.36,0,0,0,1.09,27v33.3A2.36,2.36,0,0,0,3.46,62.64Zm18.06-2.39a4.57,4.57,0,0,0-5.83,1.17l-3.47,4.26a4.4,4.4,0,0,0,.69,6.24l.53.41a4.39,4.39,0,0,0,4.91.35.21.21,0,0,1,.32.23,4.41,4.41,0,0,0,1.6,4.32l.43.34a4.42,4.42,0,0,0,4.75.46.23.23,0,0,1,.33.23,4.44,4.44,0,0,0,1.67,4l.3.23a4.46,4.46,0,0,0,4.8.45.25.25,0,0,1,.38.19,4.45,4.45,0,0,0,1.65,2.79l.19.15a4.5,4.5,0,0,0,6.68-1.31l.65-1.14a4.64,4.64,0,0,0-.78-5.73,4.48,4.48,0,0,0-4.86-.76.13.13,0,0,1-.19-.13,4.43,4.43,0,0,0-6-4.37c-.66.12-.52-.46-.52-.46a4.42,4.42,0,0,0-6.23-5.55c-.49.07-.43-.39-.43-.39A4.39,4.39,0,0,0,21.52,60.25Z" style="stroke: #dddddd; fill: #000000;"/></svg>